<?xml version="1.0" standalone="no"?>
<!DOCTYPE svg PUBLIC "-//W3C//DTD SVG 20010904//EN"
 "http://www.w3.org/TR/2001/REC-SVG-20010904/DTD/svg10.dtd">
<svg version="1.0" xmlns="http://www.w3.org/2000/svg"
 width="260.000000pt" height="260.000000pt" viewBox="0 0 260.000000 260.000000"
 preserveAspectRatio="xMidYMid meet">
<metadata>
Created by potrace 1.11, written by Peter Selinger 2001-2013
</metadata>
<g transform="translate(0.000000,260.000000) scale(0.100000,-0.100000)"
fill="#000000" stroke="none">
<path d="M1151 2539 c-373 -43 -720 -268 -917 -594 -316 -520 -207 -1198 257
-1593 466 -398 1152 -398 1618 0 364 310 519 807 396 1268 -161 601 -735 991
-1354 919z m210 -885 c28 -88 56 -165 62 -172 8 -11 51 -13 194 -10 118 2 183
-1 183 -7 -1 -5 -68 -57 -150 -115 -83 -58 -150 -109 -150 -115 0 -5 25 -86
56 -178 31 -93 54 -171 51 -174 -6 -6 -17 2 -186 124 -62 46 -118 83 -123 83
-5 0 -75 -47 -154 -105 -79 -58 -148 -105 -153 -105 -5 0 17 80 49 177 33 102
55 182 50 188 -5 6 -72 55 -149 110 -77 55 -140 105 -141 110 0 6 69 10 187
10 l188 0 60 183 c37 115 62 177 67 168 4 -7 31 -85 59 -172z"/>
</g>
</svg>
